<mxfile host="app.diagrams.net" modified="2022-10-18T17:58:51.011Z" agent="5.0 (Windows NT 10.0; Win64; x64) AppleWebKit/537.36 (KHTML, like Gecko) Chrome/106.0.0.0 Safari/537.36" etag="PbSXTQZ4UOXBq0QxE5GS" version="20.4.1" type="github">
  <diagram id="DF4Cq2ArW-oi2sjn4zay" name="Page-1">
    <mxGraphModel dx="1038" dy="547" grid="1" gridSize="10" guides="1" tooltips="1" connect="1" arrows="1" fold="1" page="1" pageScale="1" pageWidth="827" pageHeight="1169" math="0" shadow="0">
      <root>
        <mxCell id="0" />
        <mxCell id="1" parent="0" />
        <mxCell id="9zIKb2ZCAtK1NTqXTsNe-1" value="" style="whiteSpace=wrap;html=1;aspect=fixed;" parent="1" vertex="1">
          <mxGeometry x="40" y="560" width="640" height="640" as="geometry" />
        </mxCell>
        <mxCell id="9zIKb2ZCAtK1NTqXTsNe-2" value="&lt;b&gt;AWS REGION&lt;/b&gt;" style="text;html=1;align=center;verticalAlign=middle;resizable=0;points=[];autosize=1;strokeColor=none;fillColor=none;" parent="1" vertex="1">
          <mxGeometry x="50" y="535" width="100" height="30" as="geometry" />
        </mxCell>
        <mxCell id="9zIKb2ZCAtK1NTqXTsNe-3" value="" style="whiteSpace=wrap;html=1;aspect=fixed;" parent="1" vertex="1">
          <mxGeometry x="70" y="615" width="550" height="550" as="geometry" />
        </mxCell>
        <mxCell id="9zIKb2ZCAtK1NTqXTsNe-5" value="" style="rounded=0;whiteSpace=wrap;html=1;direction=south;" parent="1" vertex="1">
          <mxGeometry x="130" y="700" width="190" height="420" as="geometry" />
        </mxCell>
        <mxCell id="9zIKb2ZCAtK1NTqXTsNe-8" value="AZa" style="text;html=1;strokeColor=none;fillColor=none;align=center;verticalAlign=middle;whiteSpace=wrap;rounded=0;" parent="1" vertex="1">
          <mxGeometry x="190" y="1120" width="60" height="30" as="geometry" />
        </mxCell>
        <mxCell id="9zIKb2ZCAtK1NTqXTsNe-10" value="" style="whiteSpace=wrap;html=1;aspect=fixed;" parent="1" vertex="1">
          <mxGeometry x="160" y="760" width="130" height="130" as="geometry" />
        </mxCell>
        <mxCell id="9zIKb2ZCAtK1NTqXTsNe-11" value="" style="whiteSpace=wrap;html=1;aspect=fixed;" parent="1" vertex="1">
          <mxGeometry x="160" y="940" width="130" height="130" as="geometry" />
        </mxCell>
        <mxCell id="9zIKb2ZCAtK1NTqXTsNe-15" value="public subnet a" style="text;html=1;strokeColor=none;fillColor=none;align=center;verticalAlign=middle;whiteSpace=wrap;rounded=0;" parent="1" vertex="1">
          <mxGeometry x="195" y="890" width="60" height="30" as="geometry" />
        </mxCell>
        <mxCell id="9zIKb2ZCAtK1NTqXTsNe-18" value="private subnet a" style="text;html=1;strokeColor=none;fillColor=none;align=center;verticalAlign=middle;whiteSpace=wrap;rounded=0;" parent="1" vertex="1">
          <mxGeometry x="195" y="1070" width="60" height="30" as="geometry" />
        </mxCell>
        <mxCell id="9zIKb2ZCAtK1NTqXTsNe-20" value="" style="sketch=0;outlineConnect=0;fontColor=#232F3E;gradientColor=none;fillColor=#4D27AA;strokeColor=none;dashed=0;verticalLabelPosition=bottom;verticalAlign=top;align=center;html=1;fontSize=12;fontStyle=0;aspect=fixed;pointerEvents=1;shape=mxgraph.aws4.network_load_balancer;direction=south;" parent="1" vertex="1">
          <mxGeometry x="203" y="760" width="40" height="40" as="geometry" />
        </mxCell>
        <mxCell id="9zIKb2ZCAtK1NTqXTsNe-22" value="" style="sketch=0;outlineConnect=0;fontColor=#232F3E;gradientColor=none;fillColor=#232F3D;strokeColor=none;dashed=0;verticalLabelPosition=bottom;verticalAlign=top;align=center;html=1;fontSize=12;fontStyle=0;aspect=fixed;pointerEvents=1;shape=mxgraph.aws4.traditional_server;" parent="1" vertex="1">
          <mxGeometry x="203.00000000000003" y="830" width="23.65" height="40.99" as="geometry" />
        </mxCell>
        <mxCell id="9zIKb2ZCAtK1NTqXTsNe-23" value="public instance a" style="text;html=1;strokeColor=none;fillColor=none;align=center;verticalAlign=middle;whiteSpace=wrap;rounded=0;" parent="1" vertex="1">
          <mxGeometry x="230" y="835.49" width="60" height="30" as="geometry" />
        </mxCell>
        <mxCell id="9zIKb2ZCAtK1NTqXTsNe-25" value="" style="sketch=0;outlineConnect=0;fontColor=#232F3E;gradientColor=none;fillColor=#232F3D;strokeColor=none;dashed=0;verticalLabelPosition=bottom;verticalAlign=top;align=center;html=1;fontSize=12;fontStyle=0;aspect=fixed;pointerEvents=1;shape=mxgraph.aws4.traditional_server;" parent="1" vertex="1">
          <mxGeometry x="203" y="1005.42" width="23.56" height="40.84" as="geometry" />
        </mxCell>
        <mxCell id="9zIKb2ZCAtK1NTqXTsNe-26" value="private instance a" style="text;html=1;strokeColor=none;fillColor=none;align=center;verticalAlign=middle;whiteSpace=wrap;rounded=0;" parent="1" vertex="1">
          <mxGeometry x="226.56" y="1005.42" width="60" height="30" as="geometry" />
        </mxCell>
        <mxCell id="9zIKb2ZCAtK1NTqXTsNe-33" value="lb" style="text;html=1;strokeColor=none;fillColor=none;align=center;verticalAlign=middle;whiteSpace=wrap;rounded=0;" parent="1" vertex="1">
          <mxGeometry x="250" y="770" width="40" height="30" as="geometry" />
        </mxCell>
        <mxCell id="9zIKb2ZCAtK1NTqXTsNe-36" value="" style="outlineConnect=0;dashed=0;verticalLabelPosition=bottom;verticalAlign=top;align=center;html=1;shape=mxgraph.aws3.internet_gateway;fillColor=#F58534;gradientColor=none;" parent="1" vertex="1">
          <mxGeometry x="340" y="585" width="20" height="52" as="geometry" />
        </mxCell>
        <mxCell id="9zIKb2ZCAtK1NTqXTsNe-37" value="IGW" style="text;html=1;strokeColor=none;fillColor=none;align=center;verticalAlign=middle;whiteSpace=wrap;rounded=0;" parent="1" vertex="1">
          <mxGeometry x="350" y="585" width="60" height="30" as="geometry" />
        </mxCell>
        <mxCell id="9zIKb2ZCAtK1NTqXTsNe-39" value="" style="outlineConnect=0;dashed=0;verticalLabelPosition=bottom;verticalAlign=top;align=center;html=1;shape=mxgraph.aws3.virtual_private_cloud;fillColor=#F58534;gradientColor=none;" parent="1" vertex="1">
          <mxGeometry x="60.25" y="584" width="49.75" height="54" as="geometry" />
        </mxCell>
      </root>
    </mxGraphModel>
  </diagram>
</mxfile>
